<svg xmlns="http://www.w3.org/2000/svg" viewBox="0 0 116.44 131.24"><defs><style>.cls-1,.cls-2{fill:#003c83;}.cls-1{stroke:#003c83;}.cls-1,.cls-3,.cls-4,.cls-5{stroke-miterlimit:10;}.cls-1,.cls-3{stroke-width:14px;}.cls-3,.cls-4{fill:#fff;}.cls-3{stroke:#fff;}.cls-4,.cls-5{stroke:#000;}.cls-4{stroke-width:7px;}</style></defs><title>Recurso 3</title><g id="Capa_2" data-name="Capa 2"><g id="Capa_1-2" data-name="Capa 1"><polygon class="cls-1" points="108.24 47.83 105.85 39.71 85.14 39.71 92.63 20.39 85.92 15.23 69.16 27.4 63.87 7.38 55.41 7.14 49 26.84 32.95 13.76 25.97 18.54 32.37 38.24 11.68 37.09 8.85 45.06 25.6 57.23 8.19 68.46 10.58 76.58 31.3 76.58 23.81 95.89 30.51 101.06 47.27 88.88 52.57 108.91 61.03 109.14 67.43 89.45 83.49 102.53 90.47 97.75 84.07 78.05 104.75 79.2 107.59 71.23 90.84 59.05 108.24 47.83"/><path class="cls-2" d="M56.81,8.14c-1.92,0-7,10.07-8.8,10.5S36.34,13.18,34.67,14c-.68.34-4.84,3.1-5.48,3.5-1.61,1,.11,12-1.22,13.35S15.13,33.09,14.13,34.7c-.41.65-2.2,5.31-2.54,6-.83,1.66,6.9,9.53,6.46,11.39S8.71,61.37,8.71,63.3c0,1,1.25,6.08,1.37,7.06.31,2.49,11.34,4.87,12.34,7.07s-1.38,14,.24,15.82c.66.75,4.73,4,5.48,4.7,1.83,1.62,12.28-3.11,14.53-2.1s7.23,11.69,9.72,12c1,.12,6.22.3,7.23.3,1.93,0,7-10.07,8.81-10.49s11.67,5.46,13.34,4.63c.68-.34,4.84-3.1,5.48-3.5,1.6-1-.11-12,1.22-13.35s12.84-2.24,13.84-3.84c.4-.65,2.2-5.31,2.54-6,.83-1.67-6.9-9.53-6.47-11.39s9.35-9.29,9.35-11.21c0-1-1.26-6.08-1.38-7.07C106.05,43.43,95,41.06,94,38.85s1.38-14-.24-15.81c-.67-.75-4.73-4-5.48-4.71-1.83-1.61-12.28,3.12-14.54,2.1S66.54,8.75,64,8.44C63.06,8.32,57.83,8.14,56.81,8.14Z"/><circle class="cls-2" cx="58.22" cy="58.14" r="49"/><circle class="cls-3" cx="58.22" cy="58.14" r="33"/><circle class="cls-4" cx="58.72" cy="58.64" r="22"/><rect class="cls-5" x="71.52" y="75.63" width="6.98" height="56.59" rx="3.12" transform="translate(-31.81 33.09) rotate(-20.63)"/></g></g></svg>